name Walk5.mot
datacolumns 19
datarows 12
range 1.44000000 1.49500000
endheader

                time	   L_ground_force_vx	   L_ground_force_vy	   L_ground_force_vz	   L_ground_force_px	   L_ground_force_py	   L_ground_force_pz	   R_ground_force_vx	   R_ground_force_vy	   R_ground_force_vz	   R_ground_force_px	   R_ground_force_py	   R_ground_force_pz	   L_ground_torque_x	   L_ground_torque_y	   L_ground_torque_z	   R_ground_torque_x	   R_ground_torque_y	   R_ground_torque_z	
          1.44000000	         36.22751946	        477.16470025	         30.43375342	         -0.12941951	          0.00000000	         -0.07064943	         -0.06665908	          0.75801756	          0.05507457	          0.00061665	          0.00000000	          0.00006324	          0.00000000	          0.57808512	          0.00000000	          0.00000000	          0.00743602	          0.00000000	
          1.44500000	         39.98528581	        489.50551049	         31.27436265	         -0.12889083	          0.00000000	         -0.07035107	         -0.08476136	          0.74345900	          0.05087621	          0.00053796	          0.00000000	          0.00005589	          0.00000000	          0.59427032	          0.00000000	          0.00000000	          0.01095146	          0.00000000	
          1.45000000	         43.85549397	        501.93006784	         32.02367158	         -0.12832930	          0.00000000	         -0.07001554	         -0.10253623	          0.62906731	          0.03805490	          0.00034891	          0.00000000	          0.00003754	          0.00000000	          0.60885553	          0.00000000	          0.00000000	          0.01508275	          0.00000000	
          1.45500000	         47.84291678	        514.28252961	         32.65572760	         -0.12773553	          0.00000000	         -0.06964105	         -0.11760841	          0.37310556	          0.01336836	          0.00001107	          0.00000000	          0.00000430	          0.00000000	          0.62262538	          0.00000000	          0.00000000	          0.01966487	          0.00000000	
          1.46000000	         51.95325910	        526.39203298	         33.14732025	         -0.12711129	          0.00000000	         -0.06922661	         -0.12660724	         -0.07205038	         -0.02677601	         -0.00051712	          0.00000000	         -0.00004807	          0.00000000	          0.63674607	          0.00000000	          0.00000000	          0.02438490	          0.00000000	
          1.46500000	         56.18952672	        538.07481706	         33.47799981	         -0.12645854	          0.00000000	         -0.06877066	         -0.12502560	         -0.75733170	         -0.08607409	         -0.00127699	          0.00000000	         -0.00012380	          0.00000000	          0.65200375	          0.00000000	          0.00000000	          0.02873788	          0.00000000	
          1.47000000	         60.54894788	        549.13748203	         33.62833208	         -0.12577898	          0.00000000	         -0.06827198	         -0.10714007	         -1.73254522	         -0.16792697	         -0.00230442	          0.00000000	         -0.00022663	          0.00000000	          0.66872092	          0.00000000	          0.00000000	          0.03198163	          0.00000000	
          1.47500000	         65.02102697	        559.37978094	         33.57937593	         -0.12507380	          0.00000000	         -0.06772954	         -0.06603634	         -3.03960192	         -0.27485657	         -0.00362238	          0.00000000	         -0.00035902	          0.00000000	          0.68686929	          0.00000000	          0.00000000	          0.03309565	          0.00000000	
          1.48000000	         69.58797330	        568.59712669	         33.31237790	         -0.12434262	          0.00000000	         -0.06714375	          0.00620410	         -4.70293135	         -0.40770289	         -0.00523083	          0.00000000	         -0.00052121	          0.00000000	          0.70586106	          0.00000000	          0.00000000	          0.03075121	          0.00000000	
          1.48500000	         74.22451741	        576.58482387	         32.80947250	         -0.12358493	          0.00000000	         -0.06651539	          0.11808925	         -6.71669001	         -0.56457954	         -0.00709392	          0.00000000	         -0.00070983	          0.00000000	          0.72513643	          0.00000000	          0.00000000	          0.02330284	          0.00000000	
          1.49000000	         78.89922801	        583.14421664	         32.05399331	         -0.12280001	          0.00000000	         -0.06584595	          0.27799695	         -9.02854793	         -0.73958128	         -0.00912430	          0.00000000	         -0.00091642	          0.00000000	          0.74438604	          0.00000000	          0.00000000	          0.00881411	          0.00000000	
          1.49500000	         83.57498566	        588.08732131	         31.03218667	         -0.12198666	          0.00000000	         -0.06513980	          0.49306895	        -11.52013878	         -0.92126432	         -0.01116515	          0.00000000	         -0.00112555	          0.00000000	          0.76318036	          0.00000000	          0.00000000	         -0.01486634	          0.00000000	
